<svg xmlns="http://www.w3.org/2000/svg" viewBox="0 12 221.35000610351562 47" data-asc="0.98" width="221.35000610351562" height="47"><defs/><g fill="#000000"><g transform="translate(0, 0)"><path d="M13.75 49.65Q9.85 49.65 6.75 48.17Q3.65 46.70 1.83 43.65Q0 40.60 0 36L0 35Q0 30.60 1.75 27.70Q3.50 24.80 6.53 23.32Q9.55 21.85 13.25 21.85Q19.80 21.85 23.15 25.22Q26.50 28.60 26.50 35L26.50 37.80L7.90 37.80Q8 39.75 8.83 41.05Q9.65 42.35 10.95 42.92Q12.25 43.50 13.75 43.50Q15.95 43.50 17.23 42.83Q18.50 42.15 18.90 41L26 41Q25.20 45.35 22.05 47.50Q18.90 49.65 13.75 49.65M13.50 28Q12.10 28 10.85 28.45Q9.60 28.90 8.83 29.93Q8.05 30.95 7.95 32.70L18.95 32.70Q18.95 30.85 18.20 29.82Q17.45 28.80 16.23 28.40Q15 28 13.50 28ZM43 49.65Q39.10 49.65 36.05 48.15Q33 46.65 31.25 43.60Q29.50 40.55 29.50 36L29.50 35Q29.50 30.80 31.32 27.85Q33.15 24.90 36.23 23.38Q39.30 21.85 43 21.85Q47 21.85 49.70 23.22Q52.40 24.60 53.85 26.90Q55.30 29.20 55.50 32L47.55 32Q47.20 30.20 46.13 29.22Q45.05 28.25 43 28.25Q41.40 28.25 40.13 29Q38.85 29.75 38.13 31.22Q37.40 32.70 37.40 35L37.40 36Q37.40 38.45 38.10 40.05Q38.80 41.65 40.05 42.42Q41.30 43.20 43 43.20Q44.75 43.20 45.98 42.27Q47.20 41.35 47.55 39.50L55.50 39.50Q55.30 42.60 53.70 44.90Q52.10 47.20 49.38 48.42Q46.65 49.65 43 49.65ZM68.75 49.30Q65.55 49.30 63.50 48.52Q61.45 47.75 60.48 45.67Q59.50 43.60 59.50 39.65L59.50 14L67.20 14L67.20 38.50Q67.20 40.95 67.88 41.92Q68.55 42.90 70.70 42.90Q71.30 42.90 71.70 42.88Q72.10 42.85 72.50 42.80L72.50 49.15Q72 49.20 71.42 49.23Q70.85 49.25 70.17 49.27Q69.50 49.30 68.75 49.30ZM76.50 49L76.50 22.50L84.20 22.50L84.20 49L76.50 49M80.35 20Q78.20 20 77.03 18.88Q75.85 17.75 75.85 16Q75.85 14.25 77.03 13.13Q78.20 12 80.35 12Q82.50 12 83.67 13.13Q84.85 14.25 84.85 16Q84.85 17.75 83.67 18.88Q82.50 20 80.35 20ZM89.70 59L89.70 22.50L96.80 22.50L96.80 26.10Q97.85 24.50 99.93 23.17Q102 21.85 105.05 21.85Q110.65 21.85 113.55 25.15Q116.45 28.45 116.45 35L116.45 36Q116.45 40.50 115.05 43.52Q113.65 46.55 111.10 48.10Q108.55 49.65 105.05 49.65Q102.80 49.65 100.78 48.63Q98.75 47.60 97.40 45.65L97.40 59L89.70 59M103.20 43.30Q105.50 43.30 107.03 41.42Q108.55 39.55 108.55 36L108.55 35Q108.55 31.55 107.08 29.88Q105.60 28.20 103.20 28.20Q101.60 28.20 100.28 28.88Q98.95 29.55 98.18 30.90Q97.40 32.25 97.40 34.25L97.40 36.75Q97.40 38.80 98.18 40.27Q98.95 41.75 100.28 42.52Q101.60 43.30 103.20 43.30ZM131.95 49.65Q128.70 49.65 126.38 48.98Q124.05 48.30 122.55 47.13Q121.05 45.95 120.30 44.38Q119.55 42.80 119.45 41L127.15 41Q127.45 42.10 128.45 42.92Q129.45 43.75 131.95 43.75Q134.50 43.75 135.60 43.05Q136.70 42.35 136.70 41.20Q136.70 40.60 136.22 40.13Q135.75 39.65 134.47 39.25Q133.20 38.85 130.80 38.45Q128.60 38.10 126.67 37.55Q124.75 37 123.30 36.08Q121.85 35.15 121.03 33.70Q120.20 32.25 120.20 30.05Q120.20 27.70 121.60 25.85Q123 24 125.65 22.92Q128.30 21.85 131.95 21.85Q136.10 21.85 138.53 23.13Q140.95 24.40 142.10 26.38Q143.25 28.35 143.45 30.50L135.70 30.50Q135.40 29.25 134.43 28.50Q133.45 27.75 131.95 27.75Q129.65 27.75 128.78 28.45Q127.90 29.15 127.90 30.15Q127.90 31.15 129.30 31.72Q130.70 32.30 133.75 32.70Q135.95 33 137.88 33.55Q139.80 34.10 141.28 35.08Q142.75 36.05 143.60 37.52Q144.45 39 144.45 41.10Q144.45 43.60 143.03 45.55Q141.60 47.50 138.82 48.58Q136.05 49.65 131.95 49.65ZM161.20 49.65Q157.30 49.65 154.20 48.17Q151.10 46.70 149.27 43.65Q147.45 40.60 147.45 36L147.45 35Q147.45 30.60 149.20 27.70Q150.95 24.80 153.97 23.32Q157 21.85 160.70 21.85Q167.25 21.85 170.60 25.22Q173.95 28.60 173.95 35L173.95 37.80L155.35 37.80Q155.45 39.75 156.27 41.05Q157.10 42.35 158.40 42.92Q159.70 43.50 161.20 43.50Q163.40 43.50 164.67 42.83Q165.95 42.15 166.35 41L173.45 41Q172.65 45.35 169.50 47.50Q166.35 49.65 161.20 49.65M160.95 28Q159.55 28 158.30 28.45Q157.05 28.90 156.27 29.93Q155.50 30.95 155.40 32.70L166.40 32.70Q166.40 30.85 165.65 29.82Q164.90 28.80 163.67 28.40Q162.45 28 160.95 28ZM177.95 49L177.95 22.50L185.05 22.50L185.05 26.10Q185.45 25.20 186.40 24.20Q187.35 23.20 188.70 22.52Q190.05 21.85 191.70 21.85Q192.55 21.85 193.05 21.95Q193.55 22.05 193.95 22.15L193.95 28.80Q193.70 28.65 192.80 28.45Q191.90 28.25 190.70 28.25Q188.95 28.25 187.82 28.95Q186.70 29.65 186.17 30.85Q185.65 32.05 185.65 33.55L185.65 49L177.95 49ZM204.95 49.65Q202.10 49.65 200.07 48.55Q198.05 47.45 197 45.52Q195.95 43.60 195.95 41.25Q195.95 37.30 198.38 35.20Q200.80 33.10 205.70 33.10L213.20 33.10L213.20 32Q213.20 29.60 212.07 28.70Q210.95 27.80 208.95 27.80Q207.05 27.80 206.15 28.38Q205.25 28.95 205.15 30.25L197.45 30.25Q197.60 27.85 198.97 25.95Q200.35 24.05 202.92 22.95Q205.50 21.85 209.20 21.85Q212.70 21.85 215.35 22.90Q218 23.95 219.47 26.27Q220.95 28.60 220.95 32.50L220.95 42.25Q220.95 44.35 221.05 45.92Q221.15 47.50 221.35 49L214 49Q213.95 48.15 213.88 47.50Q213.80 46.85 213.80 45.90Q212.60 47.50 210.47 48.58Q208.35 49.65 204.95 49.65M207.45 44.20Q209.10 44.20 210.40 43.60Q211.70 43 212.45 41.77Q213.20 40.55 213.20 39L213.20 37.90L207.20 37.90Q205.50 37.90 204.67 38.80Q203.85 39.70 203.85 40.85Q203.85 42.35 204.67 43.27Q205.50 44.20 207.45 44.20Z"/></g></g></svg>